<mxfile host="app.diagrams.net" modified="2024-01-21T06:12:37.701Z" agent="Mozilla/5.0 (Windows NT 10.0; Win64; x64; rv:122.0) Gecko/20100101 Firefox/122.0" version="22.1.18" etag="X-vguRRRRepCqduVnom5" type="github">
  <diagram name="Trang-1" id="dvvwJ2dph8NqP0BnXhps">
    <mxGraphModel>
      <root>
        <mxCell id="0" />
        <mxCell id="1" parent="0" />
      </root>
    </mxGraphModel>
  </diagram>
</mxfile>
